<svg xmlns="http://www.w3.org/2000/svg" width="1200" height="800" viewBox="0 0 1200 800" font-family="Segoe UI, sans-serif"><title>B · Open canvas · Cancel this booking?</title><desc>Design proposal. All values are invented examples. Local links navigate static mockups only.</desc><rect x="0" y="0" width="1200" height="800" rx="0" fill="#F8FAFC"/><rect x="0" y="0" width="1200" height="34" rx="0" fill="#FFFFFF"/><text x="18" y="23" font-size="12" fill="#667080" font-weight="400" text-anchor="start">Asimut Booker</text><path d="M1086 17h12" stroke="#667080" fill="none"/><rect x="1128" y="12" width="10" height="10" rx="0" fill="#FFFFFF" stroke="#667080" stroke-width="1"/><path transform="translate(1166 8) scale(0.7916666666666666)" d="M6 6L18 18M6 18L18 6" stroke="#667080" stroke-width="1.7" stroke-linecap="round" stroke-linejoin="round" fill="none"/><path d="M0 34h1200" stroke="#E1E6EE" fill="none"/><rect x="0" y="35" width="1200" height="82" rx="0" fill="#FFFFFF"/><rect x="32" y="55" width="36" height="36" rx="11" fill="#0868D9"/><rect x="40" y="71" width="4" height="11" rx="2" fill="#FFFFFF"/><rect x="47" y="61" width="4" height="21" rx="2" fill="#FFFFFF"/><rect x="54" y="67" width="4" height="15" rx="2" fill="#FFFFFF"/><text x="80" y="79" font-size="20" fill="#1D2430" font-weight="600" text-anchor="start">Asimut</text><a href="b-today.svg" aria-label="Today"><rect x="430" y="56" width="114" height="42" rx="12" fill="#EAF3FF"/><text x="487" y="82" font-size="14" fill="#0868D9" font-weight="600" text-anchor="middle">Today</text></a><a href="b-week.svg" aria-label="My Week"><text x="611" y="82" font-size="14" fill="#667080" font-weight="400" text-anchor="middle">My Week</text></a><a href="b-calendar.svg" aria-label="Calendar"><text x="735" y="82" font-size="14" fill="#667080" font-weight="400" text-anchor="middle">Calendar</text></a><a href="b-assistant.svg" aria-label="Assistant"><text x="859" y="82" font-size="14" fill="#667080" font-weight="400" text-anchor="middle">Assistant</text></a><a href="b-settings.svg" aria-label="Settings"><text x="983" y="82" font-size="14" fill="#667080" font-weight="400" text-anchor="middle">Settings</text></a><path d="M0 117h1200" stroke="#E1E6EE" fill="none"/><text x="132" y="150" font-size="32" fill="#1D2430" font-weight="600" text-anchor="start">Cancel this booking?</text><text x="132" y="180" font-size="14" fill="#667080" font-weight="400" text-anchor="start">Thursday 10 September</text><path d="M132 756h936" stroke="#E1E6EE" fill="none"/><text x="132" y="780" font-size="11" fill="#667080" font-weight="400" text-anchor="start">B · Open canvas   /   Design preview · invented example data</text><rect x="132" y="208" width="690" height="376" rx="22" fill="#FFFFFF" stroke="#E1E6EE" stroke-width="1"/><text x="156" y="251" font-size="27" fill="#1D2430" font-weight="600" text-anchor="start">Room A1.06</text><text x="156" y="291" font-size="18" fill="#1D2430" font-weight="400" text-anchor="start">Thursday 10 September · 12:00–14:00</text><text x="156" y="324" font-size="14" fill="#667080" font-weight="400" text-anchor="start">2 hours of booked practice</text><path d="M156 349h642" stroke="#E1E6EE" fill="none"/><text x="156" y="388" font-size="16" fill="#667080" font-weight="400" text-anchor="start">This reservation will be removed. This time will stay protected from automatic rebooking</text><text x="156" y="411" font-size="16" fill="#667080" font-weight="400" text-anchor="start">until you reopen it.</text><text x="156" y="477" font-size="13" fill="#667080" font-weight="400" text-anchor="start">The current booking is checked before cancellation.</text><a href="b-booking.svg" aria-label="Keep booking"><rect x="156" y="515" width="315.0" height="42" rx="11" fill="#FFFFFF" stroke="#E1E6EE" stroke-width="1"/><text x="313.5" y="541.0" font-size="14" fill="#1D2430" font-weight="600" text-anchor="middle">Keep booking</text></a><a href="b-cancelling.svg" aria-label="Cancel booking"><rect x="483.0" y="515" width="315.0" height="42" rx="11" fill="#B73332"/><text x="640.5" y="541.0" font-size="14" fill="#FFFFFF" font-weight="600" text-anchor="middle">Cancel booking</text></a></svg>