<svg xmlns="http://www.w3.org/2000/svg" width="1200" height="800" viewBox="0 0 1200 800" font-family="Segoe UI, sans-serif"><title>B · Open canvas · System</title><desc>Design proposal. All values are invented examples. Local links navigate static mockups only.</desc><rect x="0" y="0" width="1200" height="800" rx="0" fill="#F8FAFC"/><rect x="0" y="0" width="1200" height="34" rx="0" fill="#FFFFFF"/><text x="18" y="23" font-size="12" fill="#667080" font-weight="400" text-anchor="start">Asimut Booker</text><path d="M1086 17h12" stroke="#667080" fill="none"/><rect x="1128" y="12" width="10" height="10" rx="0" fill="#FFFFFF" stroke="#667080" stroke-width="1"/><path transform="translate(1166 8) scale(0.7916666666666666)" d="M6 6L18 18M6 18L18 6" stroke="#667080" stroke-width="1.7" stroke-linecap="round" stroke-linejoin="round" fill="none"/><path d="M0 34h1200" stroke="#E1E6EE" fill="none"/><rect x="0" y="35" width="1200" height="82" rx="0" fill="#FFFFFF"/><rect x="32" y="55" width="36" height="36" rx="11" fill="#0868D9"/><rect x="40" y="71" width="4" height="11" rx="2" fill="#FFFFFF"/><rect x="47" y="61" width="4" height="21" rx="2" fill="#FFFFFF"/><rect x="54" y="67" width="4" height="15" rx="2" fill="#FFFFFF"/><text x="80" y="79" font-size="20" fill="#1D2430" font-weight="600" text-anchor="start">Asimut</text><a href="b-today.svg" aria-label="Today"><text x="487" y="82" font-size="14" fill="#667080" font-weight="400" text-anchor="middle">Today</text></a><a href="b-week.svg" aria-label="My Week"><text x="611" y="82" font-size="14" fill="#667080" font-weight="400" text-anchor="middle">My Week</text></a><a href="b-calendar.svg" aria-label="Calendar"><text x="735" y="82" font-size="14" fill="#667080" font-weight="400" text-anchor="middle">Calendar</text></a><a href="b-assistant.svg" aria-label="Assistant"><text x="859" y="82" font-size="14" fill="#667080" font-weight="400" text-anchor="middle">Assistant</text></a><a href="b-settings.svg" aria-label="Settings"><rect x="926" y="56" width="114" height="42" rx="12" fill="#EAF3FF"/><text x="983" y="82" font-size="14" fill="#0868D9" font-weight="600" text-anchor="middle">Settings</text></a><path d="M0 117h1200" stroke="#E1E6EE" fill="none"/><text x="132" y="150" font-size="32" fill="#1D2430" font-weight="600" text-anchor="start">System</text><text x="132" y="180" font-size="14" fill="#667080" font-weight="400" text-anchor="start">Settings</text><path d="M132 756h936" stroke="#E1E6EE" fill="none"/><text x="132" y="780" font-size="11" fill="#667080" font-weight="400" text-anchor="start">B · Open canvas   /   Design preview · invented example data</text><rect x="132" y="208" width="936" height="123" rx="18" fill="#FFFFFF" stroke="#E1E6EE" stroke-width="1"/><rect x="152" y="235" width="7" height="7" rx="4" fill="#2B805B"/><text x="172" y="244" font-size="20" fill="#1D2430" font-weight="600" text-anchor="start">Automatic booking is on</text><text x="152" y="282" font-size="14" fill="#667080" font-weight="400" text-anchor="start">Next run 12:13 · last completed run 11:58</text><a href="b-confirmations.svg" aria-label="Manage schedule"><rect x="902" y="230" width="144" height="42" rx="11" fill="#FFFFFF" stroke="#E1E6EE" stroke-width="1"/><text x="974.0" y="256.0" font-size="14" fill="#1D2430" font-weight="600" text-anchor="middle">Manage schedule</text></a><text x="132" y="375" font-size="19" fill="#1D2430" font-weight="600" text-anchor="start">Run manually</text><a href="b-run.svg" aria-label="Run in background"><rect x="132" y="394" width="180" height="42" rx="11" fill="#0868D9"/><text x="222.0" y="420.0" font-size="14" fill="#FFFFFF" font-weight="600" text-anchor="middle">Run in background</text></a><a href="b-run.svg" aria-label="Run with browser"><rect x="324" y="394" width="176" height="42" rx="11" fill="#FFFFFF" stroke="#E1E6EE" stroke-width="1"/><text x="412.0" y="420.0" font-size="14" fill="#1D2430" font-weight="600" text-anchor="middle">Run with browser</text></a><a href="b-scan.svg" aria-label="Scan availability"><rect x="512" y="394" width="184" height="42" rx="11" fill="#FFFFFF" stroke="#E1E6EE" stroke-width="1"/><text x="604.0" y="420.0" font-size="14" fill="#1D2430" font-weight="600" text-anchor="middle">Scan availability</text></a><text x="132" y="482" font-size="19" fill="#1D2430" font-weight="600" text-anchor="start">Health checks</text><text x="132.0" y="514" font-size="14" fill="#667080" font-weight="400" text-anchor="start">Saved sign-in</text><text x="312.0" y="514" font-size="14" fill="#2B805B" font-weight="600" text-anchor="start">Ready</text><text x="612.0" y="514" font-size="14" fill="#667080" font-weight="400" text-anchor="start">Booking safety</text><text x="792.0" y="514" font-size="14" fill="#2B805B" font-weight="600" text-anchor="start">Clear</text><text x="132.0" y="572" font-size="14" fill="#667080" font-weight="400" text-anchor="start">Automatic schedule</text><text x="312.0" y="572" font-size="14" fill="#2B805B" font-weight="600" text-anchor="start">Installed</text><text x="612.0" y="572" font-size="14" fill="#667080" font-weight="400" text-anchor="start">Wake from sleep</text><text x="792.0" y="572" font-size="14" fill="#667080" font-weight="600" text-anchor="start">Not verified</text><path d="M132 603h936" stroke="#E1E6EE" fill="none"/><a href="b-tools.svg" aria-label="Troubleshooting"><text x="132" y="638" font-size="16" fill="#1D2430" font-weight="600" text-anchor="start">Troubleshooting</text><text x="132" y="662" font-size="13" fill="#667080" font-weight="400" text-anchor="start">Repair sign-in, refresh agenda, inspect logs and settings</text><path transform="translate(1046 630) scale(0.75)" d="M9 5L16 12L9 19" stroke="#0868D9" stroke-width="1.7" stroke-linecap="round" stroke-linejoin="round" fill="none"/><path d="M132 680h936" stroke="#E1E6EE" fill="none"/></a><a href="b-setup.svg" aria-label="Check sign-in"><rect x="132" y="698" width="140" height="42" rx="11" fill="#FFFFFF" stroke="#E1E6EE" stroke-width="1"/><text x="202.0" y="724.0" font-size="14" fill="#1D2430" font-weight="600" text-anchor="middle">Check sign-in</text></a><a href="b-feedback.svg" aria-label="Refresh health"><rect x="284" y="698" width="154" height="42" rx="11" fill="#FFFFFF" stroke="#E1E6EE" stroke-width="1"/><text x="361.0" y="724.0" font-size="14" fill="#1D2430" font-weight="600" text-anchor="middle">Refresh health</text></a></svg>