<svg xmlns="http://www.w3.org/2000/svg" width="1200" height="800" viewBox="0 0 1200 800" font-family="Segoe UI, sans-serif"><title>C · Week workspace · Loading, empty &amp; offline</title><desc>Design proposal. All values are invented examples. Local links navigate static mockups only.</desc><rect x="0" y="0" width="1200" height="800" rx="0" fill="#F8FAFC"/><rect x="0" y="0" width="1200" height="34" rx="0" fill="#FFFFFF"/><text x="18" y="23" font-size="12" fill="#667080" font-weight="400" text-anchor="start">Asimut Booker</text><path d="M1086 17h12" stroke="#667080" fill="none"/><rect x="1128" y="12" width="10" height="10" rx="0" fill="#FFFFFF" stroke="#667080" stroke-width="1"/><path transform="translate(1166 8) scale(0.7916666666666666)" d="M6 6L18 18M6 18L18 6" stroke="#667080" stroke-width="1.7" stroke-linecap="round" stroke-linejoin="round" fill="none"/><path d="M0 34h1200" stroke="#E1E6EE" fill="none"/><rect x="0" y="35" width="88" height="765" rx="0" fill="#FFFFFF"/><rect x="26" y="62" width="36" height="36" rx="11" fill="#0868D9"/><rect x="34" y="78" width="4" height="11" rx="2" fill="#FFFFFF"/><rect x="41" y="68" width="4" height="21" rx="2" fill="#FFFFFF"/><rect x="48" y="74" width="4" height="15" rx="2" fill="#FFFFFF"/><a href="c-today.svg" aria-label="Today"><path transform="translate(34 143) scale(0.875)" d="M3 10L12 3L21 10V21H15V14H9V21H3Z" stroke="#667080" stroke-width="1.7" stroke-linecap="round" stroke-linejoin="round" fill="none"/><text x="44.0" y="183" font-size="11" fill="#667080" font-weight="400" text-anchor="middle">Today</text></a><a href="c-week.svg" aria-label="My Week"><path transform="translate(34 219) scale(0.875)" d="M9 6H21M9 12H21M9 18H21M3 6H4M3 12H4M3 18H4" stroke="#667080" stroke-width="1.7" stroke-linecap="round" stroke-linejoin="round" fill="none"/><text x="44.0" y="259" font-size="11" fill="#667080" font-weight="400" text-anchor="middle">My Week</text></a><a href="c-calendar.svg" aria-label="Calendar"><path transform="translate(34 295) scale(0.875)" d="M5 5H19Q21 5 21 7V20H3V7Q3 5 5 5M7 3V7M17 3V7M3 10H21M7 14H9M15 14H17M7 17H9" stroke="#667080" stroke-width="1.7" stroke-linecap="round" stroke-linejoin="round" fill="none"/><text x="44.0" y="335" font-size="11" fill="#667080" font-weight="400" text-anchor="middle">Calendar</text></a><a href="c-assistant.svg" aria-label="Assistant"><path transform="translate(34 371) scale(0.875)" d="M4 4H20V17H10L4 21Z" stroke="#667080" stroke-width="1.7" stroke-linecap="round" stroke-linejoin="round" fill="none"/><text x="44.0" y="411" font-size="11" fill="#667080" font-weight="400" text-anchor="middle">Assistant</text></a><a href="c-settings.svg" aria-label="Settings"><rect x="12" y="668" width="64" height="62" rx="13" fill="#EAF3FF"/><path transform="translate(34 677) scale(0.875)" d="M3 6H8M12 6H21M3 12H15M19 12H21M3 18H5M9 18H21M8 3V9M15 9V15M5 15V21" stroke="#0868D9" stroke-width="1.7" stroke-linecap="round" stroke-linejoin="round" fill="none"/><text x="44.0" y="717" font-size="11" fill="#0868D9" font-weight="600" text-anchor="middle">Settings</text></a><path d="M88 35V800" stroke="#E1E6EE"/><text x="120" y="120" font-size="32" fill="#1D2430" font-weight="600" text-anchor="start">Loading, empty &amp; offline</text><text x="120" y="150" font-size="14" fill="#667080" font-weight="400" text-anchor="start">Settings</text><path d="M120 756h1040" stroke="#E1E6EE" fill="none"/><text x="120" y="780" font-size="11" fill="#667080" font-weight="400" text-anchor="start">C · Week workspace   /   Design preview · invented example data</text><rect x="120.0" y="178" width="510.0" height="251" rx="18" fill="#FFFFFF" stroke="#E1E6EE" stroke-width="1"/><text x="140.0" y="205" font-size="10" fill="#667080" font-weight="600" text-anchor="start">LOADING</text><text x="140.0" y="240" font-size="19" fill="#0868D9" font-weight="600" text-anchor="start">Checking your bookings…</text><text x="140.0" y="279" font-size="14" fill="#667080" font-weight="400" text-anchor="start">Your last checked bookings remain visible while this refresh runs.</text><a href="c-today.svg" aria-label="Cancel refresh"><rect x="140.0" y="367" width="470.0" height="42" rx="11" fill="#0868D9"/><text x="375.0" y="393.0" font-size="14" fill="#FFFFFF" font-weight="600" text-anchor="middle">Cancel refresh</text></a><rect x="650.0" y="178" width="510.0" height="251" rx="18" fill="#FFFFFF" stroke="#E1E6EE" stroke-width="1"/><text x="670.0" y="205" font-size="10" fill="#667080" font-weight="600" text-anchor="start">EMPTY · AGENDA AVAILABLE</text><text x="670.0" y="240" font-size="19" fill="#0868D9" font-weight="600" text-anchor="start">No upcoming practice</text><text x="670.0" y="279" font-size="14" fill="#667080" font-weight="400" text-anchor="start">No practice reservation appears in the checked agenda. Your daily target is</text><text x="670.0" y="300" font-size="14" fill="#667080" font-weight="400" text-anchor="start">still 3 hours.</text><a href="c-assistant.svg" aria-label="Find a room"><rect x="670.0" y="367" width="470.0" height="42" rx="11" fill="#0868D9"/><text x="905.0" y="393.0" font-size="14" fill="#FFFFFF" font-weight="600" text-anchor="middle">Find a room</text></a><rect x="120.0" y="448" width="510.0" height="251" rx="18" fill="#FFFFFF" stroke="#E1E6EE" stroke-width="1"/><text x="140.0" y="475" font-size="10" fill="#667080" font-weight="600" text-anchor="start">OFFLINE · CACHED DATA</text><text x="140.0" y="510" font-size="19" fill="#93620C" font-weight="600" text-anchor="start">Could not refresh</text><text x="140.0" y="549" font-size="14" fill="#667080" font-weight="400" text-anchor="start">Showing bookings checked today at 11:42. They may have changed.</text><a href="c-today.svg" aria-label="Try refresh again"><rect x="140.0" y="637" width="470.0" height="42" rx="11" fill="#FFFFFF" stroke="#E1E6EE" stroke-width="1"/><text x="375.0" y="663.0" font-size="14" fill="#1D2430" font-weight="600" text-anchor="middle">Try refresh again</text></a><rect x="650.0" y="448" width="510.0" height="251" rx="18" fill="#FFFFFF" stroke="#E1E6EE" stroke-width="1"/><text x="670.0" y="475" font-size="10" fill="#667080" font-weight="600" text-anchor="start">UNAVAILABLE · NO CACHE</text><text x="670.0" y="510" font-size="19" fill="#B73332" font-weight="600" text-anchor="start">Agenda unavailable</text><text x="670.0" y="549" font-size="14" fill="#667080" font-weight="400" text-anchor="start">Booked hours are unknown. Refresh to load your schedule.</text><a href="c-today.svg" aria-label="Refresh bookings"><rect x="670.0" y="637" width="470.0" height="42" rx="11" fill="#FFFFFF" stroke="#E1E6EE" stroke-width="1"/><text x="905.0" y="663.0" font-size="14" fill="#1D2430" font-weight="600" text-anchor="middle">Refresh bookings</text></a></svg>